<?xml version="1.0" encoding="UTF-8"?>
<svg id="_Слой_1" data-name="Слой 1" xmlns="http://www.w3.org/2000/svg" viewBox="0 0 37.73 42.52">
  <path d="m37.7,21.2c0-2.82-.07-5.64.03-8.46.06-1.66-.54-2.7-2-3.52-5-2.81-9.97-5.68-14.9-8.61-1.44-.86-2.66-.8-4.07.04C11.82,3.57,6.86,6.45,1.86,9.25.48,10.02,0,10.99,0,12.51c.06,5.85.07,11.69,0,17.54-.02,1.59.65,2.48,1.95,3.22,4.99,2.83,9.96,5.7,14.9,8.61,1.29.76,2.4.9,3.77.09,5.02-2.98,10.08-5.91,15.17-8.76,1.48-.83,1.99-1.91,1.93-3.55-.1-2.82-.03-5.64-.03-8.46Zm-7.62.72c1.6-.79,2.95-2,4.25-3.89,0,1.82-.01,3.65,0,5.47-1.17-.68-2.56-1.21-4.24-1.59Zm3.67-9.79c-3.02,7.13-5.42,8.38-10.11,8.38h-1.69c0-5.52,0-10.54.07-15.34,3.55,2.1,7.13,4.15,10.72,6.17.43.24.76.5,1.01.8ZM15.97,4.96c.07,4.92.07,10.01.07,15.55h-1.69c-4.62,0-7.08-1.21-10.22-8.65.22-.2.47-.39.79-.56,3.72-2.06,7.4-4.18,11.05-6.35ZM3.3,23.74c0-.84-.02-1.68-.02-2.53,0-1.24.01-2.48.02-3.73,1.42,2.21,2.87,3.57,4.61,4.44-1.86.42-3.37,1.03-4.62,1.82Zm1.08,7.07l.48-1.56c1.27-4.01,4.08-5.56,8.65-5.56h2.53c0,4.81,0,9.39-.06,13.83-3.68-2.17-7.37-4.31-11.11-6.38-.19-.1-.35-.22-.51-.33Zm17.64,6.51c-.05-4.43-.06-8.94-.06-13.63h2.53c4.57,0,7.39,1.55,8.65,5.56l.41,1.33c-.17.15-.37.3-.61.43-3.66,2.07-7.3,4.18-10.93,6.31Z"/>
</svg>